<svg width="682" height="403" viewBox="0 0 682 403" fill="none" xmlns="http://www.w3.org/2000/svg">
<g filter="url(#filter0_d_65_2)">
<rect x="4.39069" y="0.355835" width="673.122" height="393.031" rx="16" fill="white"/>
</g>
<path d="M4.39069 16.3558C4.39069 7.51929 11.5541 0.355835 20.3907 0.355835H661.513C670.35 0.355835 677.513 7.51928 677.513 16.3558V38.1472H4.39069V16.3558Z" fill="url(#paint0_linear_65_2)"/>
<ellipse cx="30.7016" cy="19.7914" rx="6.57774" ry="6.47853" fill="#F26161"/>
<ellipse cx="51.5312" cy="19.7914" rx="6.57774" ry="6.47853" fill="#F0DD77"/>
<rect x="286.137" y="6.83435" width="109.629" height="24.8344" rx="12.4172" fill="#ECEDF8"/>
<path d="M316.28 17.8009C316.453 17.6169 316.645 17.4702 316.856 17.3609C317.067 17.2515 317.309 17.1969 317.584 17.1969C317.805 17.1969 318 17.2342 318.168 17.3089C318.339 17.3809 318.48 17.4849 318.592 17.6209C318.707 17.7542 318.793 17.9155 318.852 18.1049C318.911 18.2942 318.94 18.5035 318.94 18.7329V21.3129H318.224V18.7329C318.224 18.4262 318.153 18.1889 318.012 18.0209C317.873 17.8502 317.661 17.7649 317.376 17.7649C317.165 17.7649 316.968 17.8155 316.784 17.9169C316.603 18.0182 316.435 18.1555 316.28 18.3289V21.3129H315.564V15.4209H316.28V17.8009ZM322.221 19.4889C321.893 19.4995 321.613 19.5262 321.381 19.5689C321.152 19.6089 320.964 19.6622 320.817 19.7289C320.673 19.7955 320.568 19.8742 320.501 19.9649C320.437 20.0555 320.405 20.1569 320.405 20.2689C320.405 20.3755 320.422 20.4675 320.457 20.5449C320.492 20.6222 320.538 20.6862 320.597 20.7369C320.658 20.7849 320.729 20.8209 320.809 20.8449C320.892 20.8662 320.98 20.8769 321.073 20.8769C321.198 20.8769 321.313 20.8649 321.417 20.8409C321.521 20.8142 321.618 20.7769 321.709 20.7289C321.802 20.6809 321.89 20.6235 321.973 20.5569C322.058 20.4902 322.141 20.4142 322.221 20.3289V19.4889ZM319.921 17.8329C320.145 17.6169 320.386 17.4555 320.645 17.3489C320.904 17.2422 321.19 17.1889 321.505 17.1889C321.732 17.1889 321.933 17.2262 322.109 17.3009C322.285 17.3755 322.433 17.4795 322.553 17.6129C322.673 17.7462 322.764 17.9075 322.825 18.0969C322.886 18.2862 322.917 18.4942 322.917 18.7209V21.3129H322.601C322.532 21.3129 322.478 21.3022 322.441 21.2809C322.404 21.2569 322.374 21.2115 322.353 21.1449L322.273 20.7609C322.166 20.8595 322.062 20.9475 321.961 21.0249C321.86 21.0995 321.753 21.1635 321.641 21.2169C321.529 21.2675 321.409 21.3062 321.281 21.3329C321.156 21.3622 321.016 21.3769 320.861 21.3769C320.704 21.3769 320.556 21.3555 320.417 21.3129C320.278 21.2675 320.157 21.2009 320.053 21.1129C319.952 21.0249 319.87 20.9142 319.809 20.7809C319.75 20.6449 319.721 20.4849 319.721 20.3009C319.721 20.1409 319.765 19.9875 319.853 19.8409C319.941 19.6915 320.084 19.5595 320.281 19.4449C320.478 19.3302 320.736 19.2369 321.053 19.1649C321.37 19.0902 321.76 19.0475 322.221 19.0369V18.7209C322.221 18.4062 322.153 18.1689 322.017 18.0089C321.881 17.8462 321.682 17.7649 321.421 17.7649C321.245 17.7649 321.097 17.7875 320.977 17.8329C320.86 17.8755 320.757 17.9249 320.669 17.9809C320.584 18.0342 320.509 18.0835 320.445 18.1289C320.384 18.1715 320.322 18.1929 320.261 18.1929C320.213 18.1929 320.172 18.1809 320.137 18.1569C320.102 18.1302 320.073 18.0982 320.049 18.0609L319.921 17.8329ZM326.822 17.9809C326.8 18.0102 326.779 18.0329 326.758 18.0489C326.736 18.0649 326.707 18.0729 326.67 18.0729C326.63 18.0729 326.586 18.0569 326.538 18.0249C326.49 17.9902 326.43 17.9529 326.358 17.9129C326.288 17.8729 326.202 17.8369 326.098 17.8049C325.996 17.7702 325.871 17.7529 325.722 17.7529C325.522 17.7529 325.346 17.7889 325.194 17.8609C325.042 17.9302 324.914 18.0315 324.81 18.1649C324.708 18.2982 324.631 18.4595 324.578 18.6489C324.527 18.8382 324.502 19.0502 324.502 19.2849C324.502 19.5302 324.53 19.7489 324.586 19.9409C324.642 20.1302 324.72 20.2902 324.822 20.4209C324.926 20.5489 325.05 20.6475 325.194 20.7169C325.34 20.7835 325.504 20.8169 325.686 20.8169C325.859 20.8169 326.002 20.7969 326.114 20.7569C326.226 20.7142 326.318 20.6675 326.39 20.6169C326.464 20.5662 326.526 20.5209 326.574 20.4809C326.624 20.4382 326.674 20.4169 326.722 20.4169C326.78 20.4169 326.826 20.4395 326.858 20.4849L327.058 20.7449C326.97 20.8542 326.87 20.9475 326.758 21.0249C326.646 21.1022 326.524 21.1675 326.394 21.2209C326.266 21.2715 326.131 21.3089 325.99 21.3329C325.848 21.3569 325.704 21.3689 325.558 21.3689C325.304 21.3689 325.068 21.3222 324.85 21.2289C324.634 21.1355 324.446 21.0009 324.286 20.8249C324.126 20.6462 324 20.4275 323.91 20.1689C323.819 19.9102 323.774 19.6155 323.774 19.2849C323.774 18.9835 323.815 18.7049 323.898 18.4489C323.983 18.1929 324.106 17.9729 324.266 17.7889C324.428 17.6022 324.627 17.4569 324.862 17.3529C325.099 17.2489 325.371 17.1969 325.678 17.1969C325.963 17.1969 326.214 17.2435 326.43 17.3369C326.648 17.4275 326.842 17.5569 327.01 17.7249L326.822 17.9809ZM328.538 15.4209V18.8889H328.722C328.775 18.8889 328.819 18.8822 328.854 18.8689C328.891 18.8529 328.93 18.8222 328.97 18.7769L330.25 17.4049C330.287 17.3595 330.326 17.3249 330.366 17.3009C330.408 17.2742 330.464 17.2609 330.534 17.2609H331.178L329.686 18.8489C329.614 18.9395 329.536 19.0102 329.454 19.0609C329.502 19.0929 329.544 19.1302 329.582 19.1729C329.622 19.2129 329.659 19.2595 329.694 19.3129L331.278 21.3129H330.642C330.58 21.3129 330.527 21.3035 330.482 21.2849C330.439 21.2635 330.402 21.2262 330.37 21.1729L329.038 19.5129C328.998 19.4569 328.958 19.4209 328.918 19.4049C328.88 19.3862 328.822 19.3769 328.742 19.3769H328.538V21.3129H327.822V15.4209H328.538ZM332.148 21.3129V17.8689L331.7 17.8169C331.644 17.8035 331.598 17.7835 331.56 17.7569C331.526 17.7275 331.508 17.6862 331.508 17.6329V17.3409H332.148V16.9489C332.148 16.7169 332.18 16.5115 332.244 16.3329C332.311 16.1515 332.404 15.9995 332.524 15.8769C332.647 15.7515 332.794 15.6569 332.964 15.5929C333.135 15.5289 333.327 15.4969 333.54 15.4969C333.722 15.4969 333.888 15.5235 334.04 15.5769L334.024 15.9329C334.019 15.9969 333.983 16.0315 333.916 16.0369C333.852 16.0422 333.766 16.0449 333.656 16.0449C333.534 16.0449 333.422 16.0609 333.32 16.0929C333.222 16.1249 333.136 16.1769 333.064 16.2489C332.992 16.3209 332.936 16.4155 332.896 16.5329C332.859 16.6502 332.84 16.7955 332.84 16.9689V17.3409H334.008V17.8569H332.864V21.3129H332.148ZM336.264 17.1969C336.56 17.1969 336.827 17.2462 337.064 17.3449C337.302 17.4435 337.504 17.5835 337.672 17.7649C337.84 17.9462 337.968 18.1662 338.056 18.4249C338.147 18.6809 338.192 18.9675 338.192 19.2849C338.192 19.6049 338.147 19.8929 338.056 20.1489C337.968 20.4049 337.84 20.6235 337.672 20.8049C337.504 20.9862 337.302 21.1262 337.064 21.2249C336.827 21.3209 336.56 21.3689 336.264 21.3689C335.966 21.3689 335.696 21.3209 335.456 21.2249C335.219 21.1262 335.016 20.9862 334.848 20.8049C334.68 20.6235 334.551 20.4049 334.46 20.1489C334.372 19.8929 334.328 19.6049 334.328 19.2849C334.328 18.9675 334.372 18.6809 334.46 18.4249C334.551 18.1662 334.68 17.9462 334.848 17.7649C335.016 17.5835 335.219 17.4435 335.456 17.3449C335.696 17.2462 335.966 17.1969 336.264 17.1969ZM336.264 20.8129C336.664 20.8129 336.963 20.6795 337.16 20.4129C337.358 20.1435 337.456 19.7689 337.456 19.2889C337.456 18.8062 337.358 18.4302 337.16 18.1609C336.963 17.8915 336.664 17.7569 336.264 17.7569C336.062 17.7569 335.884 17.7915 335.732 17.8609C335.583 17.9302 335.458 18.0302 335.356 18.1609C335.258 18.2915 335.183 18.4529 335.132 18.6449C335.084 18.8342 335.06 19.0489 335.06 19.2889C335.06 19.7689 335.159 20.1435 335.356 20.4129C335.556 20.6795 335.859 20.8129 336.264 20.8129ZM339.771 18.0729C339.899 17.7955 340.057 17.5795 340.243 17.4249C340.43 17.2675 340.658 17.1889 340.927 17.1889C341.013 17.1889 341.094 17.1982 341.171 17.2169C341.251 17.2355 341.322 17.2649 341.383 17.3049L341.331 17.8369C341.315 17.9035 341.275 17.9369 341.211 17.9369C341.174 17.9369 341.119 17.9289 341.047 17.9129C340.975 17.8969 340.894 17.8889 340.803 17.8889C340.675 17.8889 340.561 17.9075 340.459 17.9449C340.361 17.9822 340.271 18.0382 340.191 18.1129C340.114 18.1849 340.043 18.2755 339.979 18.3849C339.918 18.4915 339.862 18.6142 339.811 18.7529V21.3129H339.095V17.2609H339.503C339.581 17.2609 339.634 17.2755 339.663 17.3049C339.693 17.3342 339.713 17.3849 339.723 17.4569L339.771 18.0729ZM342.009 21.3129V17.2609H342.437C342.539 17.2609 342.601 17.3102 342.625 17.4089L342.677 17.8249C342.827 17.6409 342.995 17.4902 343.181 17.3729C343.368 17.2555 343.584 17.1969 343.829 17.1969C344.101 17.1969 344.321 17.2729 344.489 17.4249C344.66 17.5769 344.783 17.7822 344.857 18.0409C344.916 17.8942 344.991 17.7675 345.081 17.6609C345.175 17.5542 345.279 17.4662 345.393 17.3969C345.508 17.3275 345.629 17.2769 345.757 17.2449C345.888 17.2129 346.02 17.1969 346.153 17.1969C346.367 17.1969 346.556 17.2315 346.721 17.3009C346.889 17.3675 347.031 17.4662 347.145 17.5969C347.263 17.7275 347.352 17.8889 347.413 18.0809C347.475 18.2702 347.505 18.4875 347.505 18.7329V21.3129H346.789V18.7329C346.789 18.4155 346.72 18.1755 346.581 18.0129C346.443 17.8475 346.243 17.7649 345.981 17.7649C345.864 17.7649 345.752 17.7862 345.645 17.8289C345.541 17.8689 345.449 17.9289 345.369 18.0089C345.289 18.0889 345.225 18.1902 345.177 18.3129C345.132 18.4329 345.109 18.5729 345.109 18.7329V21.3129H344.393V18.7329C344.393 18.4075 344.328 18.1649 344.197 18.0049C344.067 17.8449 343.876 17.7649 343.625 17.7649C343.449 17.7649 343.287 17.8129 343.137 17.9089C342.988 18.0022 342.851 18.1302 342.725 18.2929V21.3129H342.009ZM350.947 17.9289C350.915 17.9875 350.866 18.0169 350.799 18.0169C350.759 18.0169 350.714 18.0022 350.663 17.9729C350.613 17.9435 350.55 17.9115 350.475 17.8769C350.403 17.8395 350.317 17.8062 350.215 17.7769C350.114 17.7449 349.994 17.7289 349.855 17.7289C349.735 17.7289 349.627 17.7449 349.531 17.7769C349.435 17.8062 349.353 17.8475 349.283 17.9009C349.217 17.9542 349.165 18.0169 349.127 18.0889C349.093 18.1582 349.075 18.2342 349.075 18.3169C349.075 18.4209 349.105 18.5075 349.163 18.5769C349.225 18.6462 349.305 18.7062 349.403 18.7569C349.502 18.8075 349.614 18.8529 349.739 18.8929C349.865 18.9302 349.993 18.9715 350.123 19.0169C350.257 19.0595 350.386 19.1075 350.511 19.1609C350.637 19.2142 350.749 19.2809 350.847 19.3609C350.946 19.4409 351.025 19.5395 351.083 19.6569C351.145 19.7715 351.175 19.9102 351.175 20.0729C351.175 20.2595 351.142 20.4329 351.075 20.5929C351.009 20.7502 350.91 20.8875 350.779 21.0049C350.649 21.1195 350.489 21.2102 350.299 21.2769C350.11 21.3435 349.891 21.3769 349.643 21.3769C349.361 21.3769 349.105 21.3315 348.875 21.2409C348.646 21.1475 348.451 21.0289 348.291 20.8849L348.459 20.6129C348.481 20.5782 348.506 20.5515 348.535 20.5329C348.565 20.5142 348.602 20.5049 348.647 20.5049C348.695 20.5049 348.746 20.5235 348.799 20.5609C348.853 20.5982 348.917 20.6395 348.991 20.6849C349.069 20.7302 349.162 20.7715 349.271 20.8089C349.381 20.8462 349.517 20.8649 349.679 20.8649C349.818 20.8649 349.939 20.8475 350.043 20.8129C350.147 20.7755 350.234 20.7262 350.303 20.6649C350.373 20.6035 350.423 20.5329 350.455 20.4529C350.49 20.3729 350.507 20.2875 350.507 20.1969C350.507 20.0849 350.477 19.9929 350.415 19.9209C350.357 19.8462 350.278 19.7835 350.179 19.7329C350.081 19.6795 349.967 19.6342 349.839 19.5969C349.714 19.5569 349.585 19.5155 349.451 19.4729C349.321 19.4302 349.191 19.3822 349.063 19.3289C348.938 19.2729 348.826 19.2035 348.727 19.1209C348.629 19.0382 348.549 18.9369 348.487 18.8169C348.429 18.6942 348.399 18.5462 348.399 18.3729C348.399 18.2182 348.431 18.0702 348.495 17.9289C348.559 17.7849 348.653 17.6595 348.775 17.5529C348.898 17.4435 349.049 17.3569 349.227 17.2929C349.406 17.2289 349.61 17.1969 349.839 17.1969C350.106 17.1969 350.345 17.2395 350.555 17.3249C350.769 17.4075 350.953 17.5222 351.107 17.6689L350.947 17.9289ZM351.928 20.8729C351.928 20.8035 351.94 20.7382 351.964 20.6769C351.991 20.6155 352.026 20.5622 352.068 20.5169C352.114 20.4715 352.167 20.4355 352.228 20.4089C352.29 20.3822 352.355 20.3689 352.424 20.3689C352.494 20.3689 352.559 20.3822 352.62 20.4089C352.682 20.4355 352.735 20.4715 352.78 20.5169C352.826 20.5622 352.862 20.6155 352.888 20.6769C352.915 20.7382 352.928 20.8035 352.928 20.8729C352.928 20.9449 352.915 21.0115 352.888 21.0729C352.862 21.1315 352.826 21.1835 352.78 21.2289C352.735 21.2742 352.682 21.3089 352.62 21.3329C352.559 21.3595 352.494 21.3729 352.424 21.3729C352.355 21.3729 352.29 21.3595 352.228 21.3329C352.167 21.3089 352.114 21.2742 352.068 21.2289C352.026 21.1835 351.991 21.1315 351.964 21.0729C351.94 21.0115 351.928 20.9449 351.928 20.8729ZM356.759 17.9809C356.738 18.0102 356.716 18.0329 356.695 18.0489C356.674 18.0649 356.644 18.0729 356.607 18.0729C356.567 18.0729 356.523 18.0569 356.475 18.0249C356.427 17.9902 356.367 17.9529 356.295 17.9129C356.226 17.8729 356.139 17.8369 356.035 17.8049C355.934 17.7702 355.808 17.7529 355.659 17.7529C355.459 17.7529 355.283 17.7889 355.131 17.8609C354.979 17.9302 354.851 18.0315 354.747 18.1649C354.646 18.2982 354.568 18.4595 354.515 18.6489C354.464 18.8382 354.439 19.0502 354.439 19.2849C354.439 19.5302 354.467 19.7489 354.523 19.9409C354.579 20.1302 354.658 20.2902 354.759 20.4209C354.863 20.5489 354.987 20.6475 355.131 20.7169C355.278 20.7835 355.442 20.8169 355.623 20.8169C355.796 20.8169 355.939 20.7969 356.051 20.7569C356.163 20.7142 356.255 20.6675 356.327 20.6169C356.402 20.5662 356.463 20.5209 356.511 20.4809C356.562 20.4382 356.611 20.4169 356.659 20.4169C356.718 20.4169 356.763 20.4395 356.795 20.4849L356.995 20.7449C356.907 20.8542 356.807 20.9475 356.695 21.0249C356.583 21.1022 356.462 21.1675 356.331 21.2209C356.203 21.2715 356.068 21.3089 355.927 21.3329C355.786 21.3569 355.642 21.3689 355.495 21.3689C355.242 21.3689 355.006 21.3222 354.787 21.2289C354.571 21.1355 354.383 21.0009 354.223 20.8249C354.063 20.6462 353.938 20.4275 353.847 20.1689C353.756 19.9102 353.711 19.6155 353.711 19.2849C353.711 18.9835 353.752 18.7049 353.835 18.4489C353.92 18.1929 354.043 17.9729 354.203 17.7889C354.366 17.6022 354.564 17.4569 354.799 17.3529C355.036 17.2489 355.308 17.1969 355.615 17.1969C355.9 17.1969 356.151 17.2435 356.367 17.3369C356.586 17.4275 356.779 17.5569 356.947 17.7249L356.759 17.9809ZM359.397 17.1969C359.693 17.1969 359.96 17.2462 360.197 17.3449C360.434 17.4435 360.637 17.5835 360.805 17.7649C360.973 17.9462 361.101 18.1662 361.189 18.4249C361.28 18.6809 361.325 18.9675 361.325 19.2849C361.325 19.6049 361.28 19.8929 361.189 20.1489C361.101 20.4049 360.973 20.6235 360.805 20.8049C360.637 20.9862 360.434 21.1262 360.197 21.2249C359.96 21.3209 359.693 21.3689 359.397 21.3689C359.098 21.3689 358.829 21.3209 358.589 21.2249C358.352 21.1262 358.149 20.9862 357.981 20.8049C357.813 20.6235 357.684 20.4049 357.593 20.1489C357.505 19.8929 357.461 19.6049 357.461 19.2849C357.461 18.9675 357.505 18.6809 357.593 18.4249C357.684 18.1662 357.813 17.9462 357.981 17.7649C358.149 17.5835 358.352 17.4435 358.589 17.3449C358.829 17.2462 359.098 17.1969 359.397 17.1969ZM359.397 20.8129C359.797 20.8129 360.096 20.6795 360.293 20.4129C360.49 20.1435 360.589 19.7689 360.589 19.2889C360.589 18.8062 360.49 18.4302 360.293 18.1609C360.096 17.8915 359.797 17.7569 359.397 17.7569C359.194 17.7569 359.017 17.7915 358.865 17.8609C358.716 17.9302 358.59 18.0302 358.489 18.1609C358.39 18.2915 358.316 18.4529 358.265 18.6449C358.217 18.8342 358.193 19.0489 358.193 19.2889C358.193 19.7689 358.292 20.1435 358.489 20.4129C358.689 20.6795 358.992 20.8129 359.397 20.8129ZM362.228 21.3129V17.2609H362.656C362.757 17.2609 362.82 17.3102 362.844 17.4089L362.896 17.8249C363.045 17.6409 363.213 17.4902 363.4 17.3729C363.587 17.2555 363.803 17.1969 364.048 17.1969C364.32 17.1969 364.54 17.2729 364.708 17.4249C364.879 17.5769 365.001 17.7822 365.076 18.0409C365.135 17.8942 365.209 17.7675 365.3 17.6609C365.393 17.5542 365.497 17.4662 365.612 17.3969C365.727 17.3275 365.848 17.2769 365.976 17.2449C366.107 17.2129 366.239 17.1969 366.372 17.1969C366.585 17.1969 366.775 17.2315 366.94 17.3009C367.108 17.3675 367.249 17.4662 367.364 17.5969C367.481 17.7275 367.571 17.8889 367.632 18.0809C367.693 18.2702 367.724 18.4875 367.724 18.7329V21.3129H367.008V18.7329C367.008 18.4155 366.939 18.1755 366.8 18.0129C366.661 17.8475 366.461 17.7649 366.2 17.7649C366.083 17.7649 365.971 17.7862 365.864 17.8289C365.76 17.8689 365.668 17.9289 365.588 18.0089C365.508 18.0889 365.444 18.1902 365.396 18.3129C365.351 18.4329 365.328 18.5729 365.328 18.7329V21.3129H364.612V18.7329C364.612 18.4075 364.547 18.1649 364.416 18.0049C364.285 17.8449 364.095 17.7649 363.844 17.7649C363.668 17.7649 363.505 17.8129 363.356 17.9089C363.207 18.0022 363.069 18.1302 362.944 18.2929V21.3129H362.228Z" fill="#7689F8"/>
<ellipse cx="72.3607" cy="19.7914" rx="6.57774" ry="6.47853" fill="#B6E785"/>
<g filter="url(#filter1_b_65_2)">
<path d="M4 38H678V377C678 385.837 670.837 393 662 393H20C11.1634 393 4 385.837 4 377V38Z" fill="#FAFAFA" fill-opacity="0.84"/>
</g>
<path d="M130.614 153.724V143.784H137.138V144.652H131.594V148.306H136.27V149.118H131.594V153.724H130.614ZM138.662 153.724V146.43H139.614V153.724H138.662ZM138.662 144.904V143.504H139.614V144.904H138.662ZM145.351 147.27C144.716 147.289 144.156 147.466 143.671 147.802C143.195 148.138 142.859 148.6 142.663 149.188V153.724H141.711V146.43H142.607V148.18C142.859 147.667 143.19 147.251 143.601 146.934C144.021 146.617 144.464 146.439 144.931 146.402C145.024 146.393 145.103 146.388 145.169 146.388C145.243 146.388 145.304 146.393 145.351 146.402V147.27ZM149.013 153.864C148.416 153.864 147.86 153.766 147.347 153.57C146.834 153.374 146.39 153.075 146.017 152.674L146.409 152.002C146.82 152.385 147.23 152.665 147.641 152.842C148.061 153.01 148.504 153.094 148.971 153.094C149.54 153.094 150.002 152.982 150.357 152.758C150.712 152.525 150.889 152.193 150.889 151.764C150.889 151.475 150.8 151.255 150.623 151.106C150.455 150.947 150.208 150.821 149.881 150.728C149.564 150.625 149.181 150.518 148.733 150.406C148.229 150.266 147.804 150.121 147.459 149.972C147.123 149.813 146.866 149.617 146.689 149.384C146.521 149.141 146.437 148.829 146.437 148.446C146.437 147.97 146.554 147.578 146.787 147.27C147.03 146.953 147.356 146.715 147.767 146.556C148.187 146.388 148.654 146.304 149.167 146.304C149.727 146.304 150.222 146.393 150.651 146.57C151.08 146.747 151.43 146.995 151.701 147.312L151.239 147.956C150.978 147.657 150.665 147.438 150.301 147.298C149.946 147.149 149.55 147.074 149.111 147.074C148.812 147.074 148.528 147.116 148.257 147.2C147.986 147.275 147.762 147.405 147.585 147.592C147.417 147.769 147.333 148.017 147.333 148.334C147.333 148.595 147.398 148.801 147.529 148.95C147.66 149.09 147.856 149.211 148.117 149.314C148.378 149.407 148.7 149.51 149.083 149.622C149.634 149.771 150.114 149.925 150.525 150.084C150.936 150.233 151.253 150.429 151.477 150.672C151.701 150.915 151.813 151.255 151.813 151.694C151.813 152.375 151.556 152.907 151.043 153.29C150.53 153.673 149.853 153.864 149.013 153.864ZM156.887 153.374C156.812 153.402 156.695 153.453 156.537 153.528C156.378 153.603 156.187 153.668 155.963 153.724C155.739 153.78 155.496 153.808 155.235 153.808C154.964 153.808 154.707 153.757 154.465 153.654C154.231 153.551 154.045 153.397 153.905 153.192C153.765 152.977 153.695 152.716 153.695 152.408V147.186H152.687V146.43H153.695V143.966H154.647V146.43H156.327V147.186H154.647V152.142C154.665 152.403 154.759 152.599 154.927 152.73C155.104 152.861 155.305 152.926 155.529 152.926C155.79 152.926 156.028 152.884 156.243 152.8C156.457 152.707 156.588 152.641 156.635 152.604L156.887 153.374ZM161.574 150.714V146.43H162.526V150.546C162.526 151.377 162.666 151.997 162.946 152.408C163.236 152.819 163.66 153.024 164.22 153.024C164.594 153.024 164.953 152.945 165.298 152.786C165.653 152.618 165.966 152.385 166.236 152.086C166.507 151.778 166.712 151.423 166.852 151.022V146.43H167.804V152.576C167.804 152.707 167.832 152.805 167.888 152.87C167.944 152.926 168.028 152.959 168.14 152.968V153.724C168.028 153.733 167.94 153.738 167.874 153.738C167.809 153.747 167.748 153.752 167.692 153.752C167.506 153.733 167.342 153.659 167.202 153.528C167.072 153.397 167.002 153.239 166.992 153.052L166.964 152.072C166.647 152.632 166.213 153.071 165.662 153.388C165.121 153.705 164.533 153.864 163.898 153.864C163.133 153.864 162.554 153.598 162.162 153.066C161.77 152.534 161.574 151.75 161.574 150.714ZM173.681 153.864C173.074 153.864 172.528 153.705 172.043 153.388C171.567 153.071 171.189 152.679 170.909 152.212V156.706H169.957V146.43H170.811V147.844C171.1 147.387 171.488 147.018 171.973 146.738C172.458 146.449 172.976 146.304 173.527 146.304C174.031 146.304 174.493 146.411 174.913 146.626C175.333 146.831 175.697 147.111 176.005 147.466C176.313 147.821 176.551 148.227 176.719 148.684C176.896 149.132 176.985 149.599 176.985 150.084C176.985 150.765 176.845 151.395 176.565 151.974C176.294 152.543 175.912 153.001 175.417 153.346C174.922 153.691 174.344 153.864 173.681 153.864ZM173.415 153.024C173.816 153.024 174.176 152.945 174.493 152.786C174.81 152.618 175.081 152.394 175.305 152.114C175.538 151.834 175.716 151.521 175.837 151.176C175.958 150.821 176.019 150.457 176.019 150.084C176.019 149.692 175.949 149.319 175.809 148.964C175.678 148.609 175.487 148.297 175.235 148.026C174.983 147.755 174.694 147.541 174.367 147.382C174.04 147.223 173.686 147.144 173.303 147.144C173.06 147.144 172.808 147.191 172.547 147.284C172.286 147.377 172.034 147.513 171.791 147.69C171.558 147.858 171.362 148.049 171.203 148.264C171.044 148.479 170.946 148.707 170.909 148.95V151.19C171.058 151.535 171.259 151.848 171.511 152.128C171.763 152.399 172.052 152.618 172.379 152.786C172.715 152.945 173.06 153.024 173.415 153.024ZM178.751 154.858L178.989 153.682H178.667V152.352H179.591V153.682L179.241 154.858H178.751ZM188.752 143.854H189.676L191.076 147.382L192.49 143.854H193.428L191.692 148.096L193.596 152.59L197.194 143.784H198.258L194.044 153.724H193.176L191.09 148.81L188.99 153.724H188.136L183.936 143.784H184.986L188.598 152.59L190.488 148.096L188.752 143.854ZM205.593 153.724H204.641V149.65C204.641 148.829 204.496 148.213 204.207 147.802C203.917 147.382 203.502 147.172 202.961 147.172C202.606 147.172 202.251 147.265 201.897 147.452C201.551 147.629 201.243 147.877 200.973 148.194C200.711 148.502 200.525 148.857 200.413 149.258V153.724H199.461V143.504H200.413V148.082C200.702 147.541 201.103 147.111 201.617 146.794C202.139 146.467 202.695 146.304 203.283 146.304C203.703 146.304 204.057 146.379 204.347 146.528C204.645 146.677 204.883 146.897 205.061 147.186C205.247 147.466 205.383 147.797 205.467 148.18C205.551 148.553 205.593 148.978 205.593 149.454V153.724ZM207.035 151.624C207.035 151.167 207.166 150.775 207.427 150.448C207.688 150.112 208.048 149.855 208.505 149.678C208.972 149.491 209.508 149.398 210.115 149.398C210.47 149.398 210.838 149.426 211.221 149.482C211.604 149.538 211.944 149.622 212.243 149.734V149.118C212.243 148.502 212.061 148.012 211.697 147.648C211.333 147.284 210.829 147.102 210.185 147.102C209.793 147.102 209.406 147.177 209.023 147.326C208.65 147.466 208.258 147.676 207.847 147.956L207.483 147.284C207.959 146.957 208.426 146.715 208.883 146.556C209.34 146.388 209.807 146.304 210.283 146.304C211.179 146.304 211.888 146.561 212.411 147.074C212.934 147.587 213.195 148.297 213.195 149.202V152.576C213.195 152.707 213.223 152.805 213.279 152.87C213.335 152.926 213.424 152.959 213.545 152.968V153.724C213.442 153.733 213.354 153.743 213.279 153.752C213.204 153.761 213.148 153.761 213.111 153.752C212.878 153.743 212.7 153.668 212.579 153.528C212.458 153.388 212.392 153.239 212.383 153.08L212.369 152.548C212.042 152.968 211.618 153.295 211.095 153.528C210.572 153.752 210.04 153.864 209.499 153.864C209.032 153.864 208.608 153.766 208.225 153.57C207.852 153.365 207.558 153.094 207.343 152.758C207.138 152.413 207.035 152.035 207.035 151.624ZM211.921 152.184C212.024 152.053 212.103 151.927 212.159 151.806C212.215 151.685 212.243 151.577 212.243 151.484V150.42C211.926 150.299 211.594 150.205 211.249 150.14C210.913 150.075 210.572 150.042 210.227 150.042C209.546 150.042 208.995 150.177 208.575 150.448C208.155 150.719 207.945 151.087 207.945 151.554C207.945 151.825 208.015 152.081 208.155 152.324C208.295 152.557 208.5 152.753 208.771 152.912C209.042 153.061 209.359 153.136 209.723 153.136C210.18 153.136 210.605 153.047 210.997 152.87C211.398 152.693 211.706 152.464 211.921 152.184ZM218.697 153.374C218.622 153.402 218.506 153.453 218.347 153.528C218.188 153.603 217.997 153.668 217.773 153.724C217.549 153.78 217.306 153.808 217.045 153.808C216.774 153.808 216.518 153.757 216.275 153.654C216.042 153.551 215.855 153.397 215.715 153.192C215.575 152.977 215.505 152.716 215.505 152.408V147.186H214.497V146.43H215.505V143.966H216.457V146.43H218.137V147.186H216.457V152.142C216.476 152.403 216.569 152.599 216.737 152.73C216.914 152.861 217.115 152.926 217.339 152.926C217.6 152.926 217.838 152.884 218.053 152.8C218.268 152.707 218.398 152.641 218.445 152.604L218.697 153.374ZM223.455 153.724V146.43H224.407V153.724H223.455ZM223.455 144.904V143.504H224.407V144.904H223.455ZM228.898 153.864C228.3 153.864 227.745 153.766 227.232 153.57C226.718 153.374 226.275 153.075 225.902 152.674L226.294 152.002C226.704 152.385 227.115 152.665 227.526 152.842C227.946 153.01 228.389 153.094 228.856 153.094C229.425 153.094 229.887 152.982 230.242 152.758C230.596 152.525 230.774 152.193 230.774 151.764C230.774 151.475 230.685 151.255 230.508 151.106C230.34 150.947 230.092 150.821 229.766 150.728C229.448 150.625 229.066 150.518 228.618 150.406C228.114 150.266 227.689 150.121 227.344 149.972C227.008 149.813 226.751 149.617 226.574 149.384C226.406 149.141 226.322 148.829 226.322 148.446C226.322 147.97 226.438 147.578 226.672 147.27C226.914 146.953 227.241 146.715 227.652 146.556C228.072 146.388 228.538 146.304 229.052 146.304C229.612 146.304 230.106 146.393 230.536 146.57C230.965 146.747 231.315 146.995 231.586 147.312L231.124 147.956C230.862 147.657 230.55 147.438 230.186 147.298C229.831 147.149 229.434 147.074 228.996 147.074C228.697 147.074 228.412 147.116 228.142 147.2C227.871 147.275 227.647 147.405 227.47 147.592C227.302 147.769 227.218 148.017 227.218 148.334C227.218 148.595 227.283 148.801 227.414 148.95C227.544 149.09 227.74 149.211 228.002 149.314C228.263 149.407 228.585 149.51 228.968 149.622C229.518 149.771 229.999 149.925 230.41 150.084C230.82 150.233 231.138 150.429 231.362 150.672C231.586 150.915 231.698 151.255 231.698 151.694C231.698 152.375 231.441 152.907 230.928 153.29C230.414 153.673 229.738 153.864 228.898 153.864ZM236.877 155.964C237.008 155.973 237.134 155.978 237.255 155.978C237.376 155.987 237.465 155.983 237.521 155.964C237.633 155.945 237.74 155.88 237.843 155.768C237.946 155.656 238.067 155.441 238.207 155.124C238.347 154.807 238.543 154.34 238.795 153.724L235.617 146.43H236.625L239.299 152.744L241.763 146.43H242.715L238.935 155.838C238.87 156.015 238.772 156.179 238.641 156.328C238.51 156.487 238.347 156.608 238.151 156.692C237.964 156.785 237.731 156.837 237.451 156.846C237.367 156.855 237.278 156.855 237.185 156.846C237.101 156.846 236.998 156.837 236.877 156.818V155.964ZM246.893 153.864C246.37 153.864 245.885 153.766 245.437 153.57C244.998 153.365 244.616 153.089 244.289 152.744C243.972 152.389 243.724 151.988 243.547 151.54C243.37 151.083 243.281 150.602 243.281 150.098C243.281 149.575 243.37 149.09 243.547 148.642C243.724 148.185 243.976 147.783 244.303 147.438C244.63 147.083 245.012 146.808 245.451 146.612C245.899 146.407 246.384 146.304 246.907 146.304C247.43 146.304 247.91 146.407 248.349 146.612C248.788 146.808 249.17 147.083 249.497 147.438C249.824 147.783 250.076 148.185 250.253 148.642C250.43 149.09 250.519 149.575 250.519 150.098C250.519 150.602 250.43 151.083 250.253 151.54C250.076 151.988 249.824 152.389 249.497 152.744C249.18 153.089 248.797 153.365 248.349 153.57C247.91 153.766 247.425 153.864 246.893 153.864ZM244.247 150.112C244.247 150.653 244.364 151.148 244.597 151.596C244.84 152.035 245.162 152.385 245.563 152.646C245.964 152.898 246.408 153.024 246.893 153.024C247.378 153.024 247.822 152.893 248.223 152.632C248.624 152.371 248.946 152.016 249.189 151.568C249.432 151.111 249.553 150.616 249.553 150.084C249.553 149.543 249.432 149.048 249.189 148.6C248.946 148.152 248.624 147.797 248.223 147.536C247.822 147.275 247.378 147.144 246.893 147.144C246.408 147.144 245.964 147.279 245.563 147.55C245.171 147.821 244.854 148.18 244.611 148.628C244.368 149.067 244.247 149.561 244.247 150.112ZM252.041 150.714V146.43H252.993V150.546C252.993 151.377 253.133 151.997 253.413 152.408C253.702 152.819 254.127 153.024 254.687 153.024C255.06 153.024 255.42 152.945 255.765 152.786C256.12 152.618 256.432 152.385 256.703 152.086C256.974 151.778 257.179 151.423 257.319 151.022V146.43H258.271V152.576C258.271 152.707 258.299 152.805 258.355 152.87C258.411 152.926 258.495 152.959 258.607 152.968V153.724C258.495 153.733 258.406 153.738 258.341 153.738C258.276 153.747 258.215 153.752 258.159 153.752C257.972 153.733 257.809 153.659 257.669 153.528C257.538 153.397 257.468 153.239 257.459 153.052L257.431 152.072C257.114 152.632 256.68 153.071 256.129 153.388C255.588 153.705 255 153.864 254.365 153.864C253.6 153.864 253.021 153.598 252.629 153.066C252.237 152.534 252.041 151.75 252.041 150.714ZM264.064 147.27C263.429 147.289 262.869 147.466 262.384 147.802C261.908 148.138 261.572 148.6 261.376 149.188V153.724H260.424V146.43H261.32V148.18C261.572 147.667 261.903 147.251 262.314 146.934C262.734 146.617 263.177 146.439 263.644 146.402C263.737 146.393 263.816 146.388 263.882 146.388C263.956 146.388 264.017 146.393 264.064 146.402V147.27ZM274.704 153.724H273.752V149.65C273.752 148.791 273.626 148.166 273.374 147.774C273.122 147.373 272.725 147.172 272.184 147.172C271.811 147.172 271.442 147.265 271.078 147.452C270.714 147.629 270.392 147.877 270.112 148.194C269.841 148.502 269.645 148.857 269.524 149.258V153.724H268.572V146.43H269.44V148.082C269.636 147.727 269.893 147.419 270.21 147.158C270.527 146.887 270.887 146.677 271.288 146.528C271.689 146.379 272.105 146.304 272.534 146.304C272.935 146.304 273.276 146.379 273.556 146.528C273.836 146.677 274.06 146.892 274.228 147.172C274.396 147.443 274.517 147.774 274.592 148.166C274.667 148.549 274.704 148.978 274.704 149.454V153.724ZM276.146 151.624C276.146 151.167 276.277 150.775 276.538 150.448C276.8 150.112 277.159 149.855 277.616 149.678C278.083 149.491 278.62 149.398 279.226 149.398C279.581 149.398 279.95 149.426 280.332 149.482C280.715 149.538 281.056 149.622 281.354 149.734V149.118C281.354 148.502 281.172 148.012 280.808 147.648C280.444 147.284 279.94 147.102 279.296 147.102C278.904 147.102 278.517 147.177 278.134 147.326C277.761 147.466 277.369 147.676 276.958 147.956L276.594 147.284C277.07 146.957 277.537 146.715 277.994 146.556C278.452 146.388 278.918 146.304 279.394 146.304C280.29 146.304 281 146.561 281.522 147.074C282.045 147.587 282.306 148.297 282.306 149.202V152.576C282.306 152.707 282.334 152.805 282.39 152.87C282.446 152.926 282.535 152.959 282.656 152.968V153.724C282.554 153.733 282.465 153.743 282.39 153.752C282.316 153.761 282.26 153.761 282.222 153.752C281.989 153.743 281.812 153.668 281.69 153.528C281.569 153.388 281.504 153.239 281.494 153.08L281.48 152.548C281.154 152.968 280.729 153.295 280.206 153.528C279.684 153.752 279.152 153.864 278.61 153.864C278.144 153.864 277.719 153.766 277.336 153.57C276.963 153.365 276.669 153.094 276.454 152.758C276.249 152.413 276.146 152.035 276.146 151.624ZM281.032 152.184C281.135 152.053 281.214 151.927 281.27 151.806C281.326 151.685 281.354 151.577 281.354 151.484V150.42C281.037 150.299 280.706 150.205 280.36 150.14C280.024 150.075 279.684 150.042 279.338 150.042C278.657 150.042 278.106 150.177 277.686 150.448C277.266 150.719 277.056 151.087 277.056 151.554C277.056 151.825 277.126 152.081 277.266 152.324C277.406 152.557 277.612 152.753 277.882 152.912C278.153 153.061 278.47 153.136 278.834 153.136C279.292 153.136 279.716 153.047 280.108 152.87C280.51 152.693 280.818 152.464 281.032 152.184ZM295.213 153.724H294.261V149.65C294.261 148.801 294.126 148.175 293.855 147.774C293.584 147.373 293.183 147.172 292.651 147.172C292.1 147.172 291.606 147.368 291.167 147.76C290.738 148.152 290.434 148.656 290.257 149.272V153.724H289.305V149.65C289.305 148.791 289.174 148.166 288.913 147.774C288.652 147.373 288.25 147.172 287.709 147.172C287.168 147.172 286.678 147.363 286.239 147.746C285.8 148.129 285.492 148.633 285.315 149.258V153.724H284.363V146.43H285.231V148.082C285.539 147.513 285.931 147.074 286.407 146.766C286.892 146.458 287.429 146.304 288.017 146.304C288.624 146.304 289.114 146.477 289.487 146.822C289.86 147.167 290.089 147.62 290.173 148.18C290.509 147.564 290.91 147.097 291.377 146.78C291.853 146.463 292.39 146.304 292.987 146.304C293.398 146.304 293.743 146.379 294.023 146.528C294.312 146.677 294.541 146.892 294.709 147.172C294.886 147.443 295.012 147.774 295.087 148.166C295.171 148.549 295.213 148.978 295.213 149.454V153.724ZM300.378 153.864C299.856 153.864 299.37 153.766 298.922 153.57C298.474 153.365 298.087 153.089 297.76 152.744C297.434 152.389 297.177 151.983 296.99 151.526C296.813 151.069 296.724 150.579 296.724 150.056C296.724 149.375 296.878 148.749 297.186 148.18C297.504 147.611 297.938 147.158 298.488 146.822C299.039 146.477 299.664 146.304 300.364 146.304C301.083 146.304 301.708 146.477 302.24 146.822C302.782 147.167 303.206 147.625 303.514 148.194C303.822 148.754 303.976 149.37 303.976 150.042C303.976 150.117 303.976 150.191 303.976 150.266C303.976 150.331 303.972 150.383 303.962 150.42H297.718C297.765 150.943 297.91 151.409 298.152 151.82C298.404 152.221 298.726 152.543 299.118 152.786C299.52 153.019 299.954 153.136 300.42 153.136C300.896 153.136 301.344 153.015 301.764 152.772C302.194 152.529 302.492 152.212 302.66 151.82L303.486 152.044C303.337 152.389 303.108 152.702 302.8 152.982C302.492 153.262 302.128 153.481 301.708 153.64C301.298 153.789 300.854 153.864 300.378 153.864ZM297.69 149.734H303.08C303.043 149.202 302.898 148.735 302.646 148.334C302.404 147.933 302.082 147.62 301.68 147.396C301.288 147.163 300.854 147.046 300.378 147.046C299.902 147.046 299.468 147.163 299.076 147.396C298.684 147.62 298.362 147.937 298.11 148.348C297.868 148.749 297.728 149.211 297.69 149.734ZM310.12 150.896C310.12 150.485 310.162 150.135 310.246 149.846C310.339 149.547 310.47 149.291 310.638 149.076C310.815 148.861 311.039 148.675 311.31 148.516C311.487 148.404 311.688 148.287 311.912 148.166C312.145 148.045 312.36 147.905 312.556 147.746C312.761 147.578 312.929 147.377 313.06 147.144C313.19 146.901 313.256 146.612 313.256 146.276C313.256 145.865 313.162 145.529 312.976 145.268C312.798 144.997 312.565 144.797 312.276 144.666C311.986 144.526 311.678 144.456 311.352 144.456C311.025 144.456 310.712 144.521 310.414 144.652C310.124 144.773 309.868 144.941 309.644 145.156C309.42 145.371 309.238 145.613 309.098 145.884L308.44 145.464C308.617 145.081 308.855 144.755 309.154 144.484C309.462 144.213 309.807 144.008 310.19 143.868C310.572 143.728 310.964 143.658 311.366 143.658C311.711 143.658 312.047 143.714 312.374 143.826C312.7 143.929 312.99 144.092 313.242 144.316C313.503 144.54 313.708 144.82 313.858 145.156C314.016 145.483 314.096 145.875 314.096 146.332C314.096 146.705 314.044 147.023 313.942 147.284C313.839 147.536 313.694 147.755 313.508 147.942C313.33 148.119 313.13 148.278 312.906 148.418C312.682 148.558 312.448 148.693 312.206 148.824C311.991 148.945 311.786 149.081 311.59 149.23C311.394 149.379 311.235 149.585 311.114 149.846C310.992 150.098 310.932 150.448 310.932 150.896H310.12ZM310.134 153.724V152.226H310.96V153.724H310.134Z" fill="black"/>
<path d="M102.163 152.856V153.724H97.4171V152.856H99.4051V146.864C99.3304 146.976 99.2044 147.097 99.0271 147.228C98.8497 147.359 98.6444 147.48 98.4111 147.592C98.1871 147.704 97.9631 147.797 97.7391 147.872C97.5151 147.947 97.3097 147.984 97.1231 147.984V147.06C97.3377 147.06 97.5711 146.999 97.8231 146.878C98.0751 146.757 98.3177 146.617 98.5511 146.458C98.7844 146.299 98.9804 146.15 99.1391 146.01C99.2977 145.87 99.3864 145.777 99.4051 145.73H100.385V152.856H102.163ZM103.377 153.724V152.352H104.203V153.724H103.377Z" fill="black"/>
<path d="M119.855 149.715C120.05 149.52 120.05 149.204 119.855 149.008L116.673 145.826C116.477 145.631 116.161 145.631 115.966 145.826C115.77 146.022 115.77 146.338 115.966 146.534L118.794 149.362L115.966 152.19C115.77 152.386 115.77 152.702 115.966 152.897C116.161 153.093 116.477 153.093 116.673 152.897L119.855 149.715ZM110.731 149.862H119.501V148.862H110.731V149.862Z" fill="#949494"/>
<rect x="97.4791" y="168.718" width="330.176" height="39.0307" rx="5" stroke="#BBBBBB" stroke-width="2"/>
<path d="M118.44 183.171H115.151V191.595H114.241V183.171H110.952V182.365H118.44V183.171ZM118.977 193.675C119.098 193.684 119.215 193.688 119.328 193.688C119.44 193.697 119.523 193.692 119.575 193.675C119.679 193.658 119.778 193.597 119.874 193.493C119.969 193.389 120.082 193.19 120.212 192.895C120.342 192.6 120.524 192.167 120.758 191.595L117.807 184.822H118.743L121.226 190.685L123.514 184.822H124.398L120.888 193.558C120.827 193.723 120.736 193.874 120.615 194.013C120.493 194.16 120.342 194.273 120.16 194.351C119.986 194.438 119.77 194.485 119.51 194.494C119.432 194.503 119.349 194.503 119.263 194.494C119.185 194.494 119.089 194.485 118.977 194.468V193.675ZM129.091 191.725C128.527 191.725 128.02 191.578 127.57 191.283C127.128 190.988 126.777 190.624 126.517 190.191V194.364H125.633V184.822H126.426V186.135C126.694 185.71 127.054 185.368 127.505 185.108C127.955 184.839 128.436 184.705 128.948 184.705C129.416 184.705 129.845 184.805 130.235 185.004C130.625 185.195 130.963 185.455 131.249 185.784C131.535 186.113 131.756 186.49 131.912 186.915C132.076 187.331 132.159 187.764 132.159 188.215C132.159 188.848 132.029 189.433 131.769 189.97C131.517 190.499 131.162 190.923 130.703 191.244C130.243 191.565 129.706 191.725 129.091 191.725ZM128.844 190.945C129.216 190.945 129.55 190.871 129.845 190.724C130.139 190.568 130.391 190.36 130.599 190.1C130.815 189.84 130.98 189.55 131.093 189.229C131.205 188.9 131.262 188.562 131.262 188.215C131.262 187.851 131.197 187.504 131.067 187.175C130.945 186.846 130.768 186.555 130.534 186.304C130.3 186.053 130.031 185.853 129.728 185.706C129.424 185.559 129.095 185.485 128.74 185.485C128.514 185.485 128.28 185.528 128.038 185.615C127.795 185.702 127.561 185.827 127.336 185.992C127.119 186.148 126.937 186.326 126.79 186.525C126.642 186.724 126.551 186.937 126.517 187.162V189.242C126.655 189.563 126.842 189.853 127.076 190.113C127.31 190.364 127.578 190.568 127.882 190.724C128.194 190.871 128.514 190.945 128.844 190.945ZM136.581 191.725C136.096 191.725 135.645 191.634 135.229 191.452C134.813 191.261 134.453 191.006 134.15 190.685C133.847 190.356 133.608 189.979 133.435 189.554C133.27 189.129 133.188 188.674 133.188 188.189C133.188 187.556 133.331 186.976 133.617 186.447C133.912 185.918 134.315 185.498 134.826 185.186C135.337 184.865 135.918 184.705 136.568 184.705C137.235 184.705 137.816 184.865 138.31 185.186C138.813 185.507 139.207 185.931 139.493 186.46C139.779 186.98 139.922 187.552 139.922 188.176C139.922 188.245 139.922 188.315 139.922 188.384C139.922 188.445 139.918 188.492 139.909 188.527H134.111C134.154 189.012 134.289 189.446 134.514 189.827C134.748 190.2 135.047 190.499 135.411 190.724C135.784 190.941 136.187 191.049 136.62 191.049C137.062 191.049 137.478 190.936 137.868 190.711C138.267 190.486 138.544 190.191 138.7 189.827L139.467 190.035C139.328 190.356 139.116 190.646 138.83 190.906C138.544 191.166 138.206 191.37 137.816 191.517C137.435 191.656 137.023 191.725 136.581 191.725ZM134.085 187.89H139.09C139.055 187.396 138.921 186.963 138.687 186.59C138.462 186.217 138.163 185.927 137.79 185.719C137.426 185.502 137.023 185.394 136.581 185.394C136.139 185.394 135.736 185.502 135.372 185.719C135.008 185.927 134.709 186.222 134.475 186.603C134.25 186.976 134.12 187.405 134.085 187.89ZM144.634 193.675C144.755 193.684 144.872 193.688 144.985 193.688C145.098 193.697 145.18 193.692 145.232 193.675C145.336 193.658 145.436 193.597 145.531 193.493C145.626 193.389 145.739 193.19 145.869 192.895C145.999 192.6 146.181 192.167 146.415 191.595L143.464 184.822H144.4L146.883 190.685L149.171 184.822H150.055L146.545 193.558C146.484 193.723 146.393 193.874 146.272 194.013C146.151 194.16 145.999 194.273 145.817 194.351C145.644 194.438 145.427 194.485 145.167 194.494C145.089 194.503 145.007 194.503 144.92 194.494C144.842 194.494 144.747 194.485 144.634 194.468V193.675ZM153.935 191.725C153.449 191.725 152.999 191.634 152.583 191.452C152.175 191.261 151.82 191.006 151.517 190.685C151.222 190.356 150.992 189.983 150.828 189.567C150.663 189.142 150.581 188.696 150.581 188.228C150.581 187.743 150.663 187.292 150.828 186.876C150.992 186.451 151.226 186.079 151.53 185.758C151.833 185.429 152.188 185.173 152.596 184.991C153.012 184.8 153.462 184.705 153.948 184.705C154.433 184.705 154.879 184.8 155.287 184.991C155.694 185.173 156.049 185.429 156.353 185.758C156.656 186.079 156.89 186.451 157.055 186.876C157.219 187.292 157.302 187.743 157.302 188.228C157.302 188.696 157.219 189.142 157.055 189.567C156.89 189.983 156.656 190.356 156.353 190.685C156.058 191.006 155.703 191.261 155.287 191.452C154.879 191.634 154.429 191.725 153.935 191.725ZM151.478 188.241C151.478 188.744 151.586 189.203 151.803 189.619C152.028 190.026 152.327 190.351 152.7 190.594C153.072 190.828 153.484 190.945 153.935 190.945C154.385 190.945 154.797 190.824 155.17 190.581C155.542 190.338 155.841 190.009 156.067 189.593C156.292 189.168 156.405 188.709 156.405 188.215C156.405 187.712 156.292 187.253 156.067 186.837C155.841 186.421 155.542 186.092 155.17 185.849C154.797 185.606 154.385 185.485 153.935 185.485C153.484 185.485 153.072 185.611 152.7 185.862C152.336 186.113 152.041 186.447 151.816 186.863C151.59 187.27 151.478 187.73 151.478 188.241ZM158.715 188.8V184.822H159.599V188.644C159.599 189.415 159.729 189.992 159.989 190.373C160.258 190.754 160.652 190.945 161.172 190.945C161.519 190.945 161.852 190.871 162.173 190.724C162.502 190.568 162.793 190.351 163.044 190.074C163.295 189.788 163.486 189.459 163.616 189.086V184.822H164.5V190.529C164.5 190.65 164.526 190.741 164.578 190.802C164.63 190.854 164.708 190.884 164.812 190.893V191.595C164.708 191.604 164.626 191.608 164.565 191.608C164.504 191.617 164.448 191.621 164.396 191.621C164.223 191.604 164.071 191.534 163.941 191.413C163.82 191.292 163.755 191.144 163.746 190.971L163.72 190.061C163.425 190.581 163.022 190.988 162.511 191.283C162.008 191.578 161.462 191.725 160.873 191.725C160.162 191.725 159.625 191.478 159.261 190.984C158.897 190.49 158.715 189.762 158.715 188.8ZM169.879 185.602C169.289 185.619 168.769 185.784 168.319 186.096C167.877 186.408 167.565 186.837 167.383 187.383V191.595H166.499V184.822H167.331V186.447C167.565 185.97 167.872 185.585 168.254 185.29C168.644 184.995 169.055 184.831 169.489 184.796C169.575 184.787 169.649 184.783 169.71 184.783C169.779 184.783 169.835 184.787 169.879 184.796V185.602ZM173.519 189.645C173.519 189.22 173.641 188.856 173.883 188.553C174.126 188.241 174.46 188.003 174.884 187.838C175.318 187.665 175.816 187.578 176.379 187.578C176.709 187.578 177.051 187.604 177.406 187.656C177.762 187.708 178.078 187.786 178.355 187.89V187.318C178.355 186.746 178.186 186.291 177.848 185.953C177.51 185.615 177.042 185.446 176.444 185.446C176.08 185.446 175.721 185.515 175.365 185.654C175.019 185.784 174.655 185.979 174.273 186.239L173.935 185.615C174.377 185.312 174.811 185.086 175.235 184.939C175.66 184.783 176.093 184.705 176.535 184.705C177.367 184.705 178.026 184.943 178.511 185.42C178.997 185.897 179.239 186.555 179.239 187.396V190.529C179.239 190.65 179.265 190.741 179.317 190.802C179.369 190.854 179.452 190.884 179.564 190.893V191.595C179.469 191.604 179.387 191.612 179.317 191.621C179.248 191.63 179.196 191.63 179.161 191.621C178.945 191.612 178.78 191.543 178.667 191.413C178.555 191.283 178.494 191.144 178.485 190.997L178.472 190.503C178.169 190.893 177.775 191.196 177.289 191.413C176.804 191.621 176.31 191.725 175.807 191.725C175.374 191.725 174.98 191.634 174.624 191.452C174.278 191.261 174.005 191.01 173.805 190.698C173.615 190.377 173.519 190.026 173.519 189.645ZM178.056 190.165C178.152 190.044 178.225 189.927 178.277 189.814C178.329 189.701 178.355 189.602 178.355 189.515V188.527C178.061 188.414 177.753 188.328 177.432 188.267C177.12 188.206 176.804 188.176 176.483 188.176C175.851 188.176 175.339 188.302 174.949 188.553C174.559 188.804 174.364 189.147 174.364 189.58C174.364 189.831 174.429 190.07 174.559 190.295C174.689 190.512 174.88 190.694 175.131 190.841C175.383 190.98 175.677 191.049 176.015 191.049C176.44 191.049 176.834 190.967 177.198 190.802C177.571 190.637 177.857 190.425 178.056 190.165ZM186.843 191.595H185.959V187.812C185.959 187.015 185.842 186.434 185.608 186.07C185.374 185.697 185.006 185.511 184.503 185.511C184.157 185.511 183.814 185.598 183.476 185.771C183.138 185.936 182.839 186.165 182.579 186.46C182.328 186.746 182.146 187.075 182.033 187.448V191.595H181.149V184.822H181.955V186.356C182.137 186.027 182.376 185.741 182.67 185.498C182.965 185.247 183.299 185.052 183.671 184.913C184.044 184.774 184.43 184.705 184.828 184.705C185.201 184.705 185.517 184.774 185.777 184.913C186.037 185.052 186.245 185.251 186.401 185.511C186.557 185.762 186.67 186.07 186.739 186.434C186.809 186.789 186.843 187.188 186.843 187.63V191.595ZM190.951 191.725C190.397 191.725 189.881 191.634 189.404 191.452C188.928 191.27 188.516 190.993 188.169 190.62L188.533 189.996C188.915 190.351 189.296 190.611 189.677 190.776C190.067 190.932 190.479 191.01 190.912 191.01C191.441 191.01 191.87 190.906 192.199 190.698C192.529 190.481 192.693 190.174 192.693 189.775C192.693 189.506 192.611 189.303 192.446 189.164C192.29 189.017 192.061 188.9 191.757 188.813C191.463 188.718 191.107 188.618 190.691 188.514C190.223 188.384 189.829 188.25 189.508 188.111C189.196 187.964 188.958 187.782 188.793 187.565C188.637 187.34 188.559 187.049 188.559 186.694C188.559 186.252 188.668 185.888 188.884 185.602C189.11 185.307 189.413 185.086 189.794 184.939C190.184 184.783 190.618 184.705 191.094 184.705C191.614 184.705 192.074 184.787 192.472 184.952C192.871 185.117 193.196 185.346 193.447 185.641L193.018 186.239C192.776 185.962 192.485 185.758 192.147 185.628C191.818 185.489 191.45 185.42 191.042 185.42C190.765 185.42 190.501 185.459 190.249 185.537C189.998 185.606 189.79 185.728 189.625 185.901C189.469 186.066 189.391 186.295 189.391 186.59C189.391 186.833 189.452 187.023 189.573 187.162C189.695 187.292 189.877 187.405 190.119 187.5C190.362 187.587 190.661 187.682 191.016 187.786C191.528 187.925 191.974 188.068 192.355 188.215C192.737 188.354 193.031 188.536 193.239 188.761C193.447 188.986 193.551 189.303 193.551 189.71C193.551 190.343 193.313 190.837 192.836 191.192C192.36 191.547 191.731 191.725 190.951 191.725ZM203.414 184.822H204.285L201.373 191.595H200.606L199.189 188.228L197.785 191.595H197.018L194.106 184.822H194.964L197.434 190.685L198.682 187.63L197.538 184.835H198.331L199.189 187.032L200.06 184.835H200.84L199.709 187.63L200.957 190.685L203.414 184.822ZM208.157 191.725C207.672 191.725 207.221 191.634 206.805 191.452C206.389 191.261 206.03 191.006 205.726 190.685C205.423 190.356 205.185 189.979 205.011 189.554C204.847 189.129 204.764 188.674 204.764 188.189C204.764 187.556 204.907 186.976 205.193 186.447C205.488 185.918 205.891 185.498 206.402 185.186C206.914 184.865 207.494 184.705 208.144 184.705C208.812 184.705 209.392 184.865 209.886 185.186C210.389 185.507 210.783 185.931 211.069 186.46C211.355 186.98 211.498 187.552 211.498 188.176C211.498 188.245 211.498 188.315 211.498 188.384C211.498 188.445 211.494 188.492 211.485 188.527H205.687C205.731 189.012 205.865 189.446 206.09 189.827C206.324 190.2 206.623 190.499 206.987 190.724C207.36 190.941 207.763 191.049 208.196 191.049C208.638 191.049 209.054 190.936 209.444 190.711C209.843 190.486 210.12 190.191 210.276 189.827L211.043 190.035C210.905 190.356 210.692 190.646 210.406 190.906C210.12 191.166 209.782 191.37 209.392 191.517C209.011 191.656 208.599 191.725 208.157 191.725ZM205.661 187.89H210.666C210.632 187.396 210.497 186.963 210.263 186.59C210.038 186.217 209.739 185.927 209.366 185.719C209.002 185.502 208.599 185.394 208.157 185.394C207.715 185.394 207.312 185.502 206.948 185.719C206.584 185.927 206.285 186.222 206.051 186.603C205.826 186.976 205.696 187.405 205.661 187.89ZM216.242 185.602C215.653 185.619 215.133 185.784 214.682 186.096C214.24 186.408 213.928 186.837 213.746 187.383V191.595H212.862V184.822H213.694V186.447C213.928 185.97 214.236 185.585 214.617 185.29C215.007 184.995 215.419 184.831 215.852 184.796C215.939 184.787 216.012 184.783 216.073 184.783C216.142 184.783 216.199 184.787 216.242 184.796V185.602ZM226.122 191.595H225.238V187.812C225.238 187.049 225.104 186.477 224.835 186.096C224.567 185.706 224.181 185.511 223.678 185.511C223.349 185.511 223.02 185.598 222.69 185.771C222.37 185.936 222.084 186.165 221.832 186.46C221.59 186.746 221.416 187.075 221.312 187.448V191.595H220.428V182.105H221.312V186.356C221.581 185.853 221.954 185.455 222.43 185.16C222.916 184.857 223.431 184.705 223.977 184.705C224.367 184.705 224.697 184.774 224.965 184.913C225.243 185.052 225.464 185.255 225.628 185.524C225.802 185.784 225.927 186.092 226.005 186.447C226.083 186.794 226.122 187.188 226.122 187.63V191.595ZM230.933 191.725C230.447 191.725 229.997 191.634 229.581 191.452C229.165 191.261 228.805 191.006 228.502 190.685C228.198 190.356 227.96 189.979 227.787 189.554C227.622 189.129 227.54 188.674 227.54 188.189C227.54 187.556 227.683 186.976 227.969 186.447C228.263 185.918 228.666 185.498 229.178 185.186C229.689 184.865 230.27 184.705 230.92 184.705C231.587 184.705 232.168 184.865 232.662 185.186C233.164 185.507 233.559 185.931 233.845 186.46C234.131 186.98 234.274 187.552 234.274 188.176C234.274 188.245 234.274 188.315 234.274 188.384C234.274 188.445 234.269 188.492 234.261 188.527H228.463C228.506 189.012 228.64 189.446 228.866 189.827C229.1 190.2 229.399 190.499 229.763 190.724C230.135 190.941 230.538 191.049 230.972 191.049C231.414 191.049 231.83 190.936 232.22 190.711C232.618 190.486 232.896 190.191 233.052 189.827L233.819 190.035C233.68 190.356 233.468 190.646 233.182 190.906C232.896 191.166 232.558 191.37 232.168 191.517C231.786 191.656 231.375 191.725 230.933 191.725ZM228.437 187.89H233.442C233.407 187.396 233.273 186.963 233.039 186.59C232.813 186.217 232.514 185.927 232.142 185.719C231.778 185.502 231.375 185.394 230.933 185.394C230.491 185.394 230.088 185.502 229.724 185.719C229.36 185.927 229.061 186.222 228.827 186.603C228.601 186.976 228.471 187.405 228.437 187.89ZM239.017 185.602C238.428 185.619 237.908 185.784 237.457 186.096C237.015 186.408 236.703 186.837 236.521 187.383V191.595H235.637V184.822H236.469V186.447C236.703 185.97 237.011 185.585 237.392 185.29C237.782 184.995 238.194 184.831 238.627 184.796C238.714 184.787 238.788 184.783 238.848 184.783C238.918 184.783 238.974 184.787 239.017 184.796V185.602ZM242.904 191.725C242.419 191.725 241.968 191.634 241.552 191.452C241.136 191.261 240.777 191.006 240.473 190.685C240.17 190.356 239.932 189.979 239.758 189.554C239.594 189.129 239.511 188.674 239.511 188.189C239.511 187.556 239.654 186.976 239.94 186.447C240.235 185.918 240.638 185.498 241.149 185.186C241.661 184.865 242.241 184.705 242.891 184.705C243.559 184.705 244.139 184.865 244.633 185.186C245.136 185.507 245.53 185.931 245.816 186.46C246.102 186.98 246.245 187.552 246.245 188.176C246.245 188.245 246.245 188.315 246.245 188.384C246.245 188.445 246.241 188.492 246.232 188.527H240.434C240.478 189.012 240.612 189.446 240.837 189.827C241.071 190.2 241.37 190.499 241.734 190.724C242.107 190.941 242.51 191.049 242.943 191.049C243.385 191.049 243.801 190.936 244.191 190.711C244.59 190.486 244.867 190.191 245.023 189.827L245.79 190.035C245.652 190.356 245.439 190.646 245.153 190.906C244.867 191.166 244.529 191.37 244.139 191.517C243.758 191.656 243.346 191.725 242.904 191.725ZM240.408 187.89H245.413C245.379 187.396 245.244 186.963 245.01 186.59C244.785 186.217 244.486 185.927 244.113 185.719C243.749 185.502 243.346 185.394 242.904 185.394C242.462 185.394 242.059 185.502 241.695 185.719C241.331 185.927 241.032 186.222 240.798 186.603C240.573 186.976 240.443 187.405 240.408 187.89ZM250.793 191.595V190.321H251.56V191.595H250.793ZM253.256 191.595V190.321H254.023V191.595H253.256ZM255.718 191.595V190.321H256.485V191.595H255.718ZM258.181 191.595V190.321H258.948V191.595H258.181Z" fill="#AAAAAA"/>
<rect x="595.291" y="335.08" width="17.5406" height="17.2761" rx="2" fill="#F2F2F2"/>
<path d="M603.708 347.311C603.903 347.506 604.22 347.506 604.415 347.311L607.597 344.129C607.792 343.933 607.792 343.617 607.597 343.422C607.402 343.226 607.085 343.226 606.89 343.422L604.062 346.25L601.233 343.422C601.038 343.226 600.721 343.226 600.526 343.422C600.331 343.617 600.331 343.933 600.526 344.129L603.708 347.311ZM603.562 340.479V346.957H604.562V340.479H603.562Z" fill="#AAAAAA"/>
<rect x="639.143" y="352.356" width="17.5406" height="17.2761" rx="2" transform="rotate(-180 639.143 352.356)" fill="#F2F2F2"/>
<path d="M630.726 340.125C630.531 339.93 630.214 339.93 630.019 340.125L626.837 343.307C626.642 343.502 626.642 343.819 626.837 344.014C627.032 344.209 627.349 344.209 627.544 344.014L630.373 341.186L633.201 344.014C633.396 344.209 633.713 344.209 633.908 344.014C634.103 343.819 634.103 343.502 633.908 343.307L630.726 340.125ZM630.873 346.957V340.479H629.873V346.957H630.873Z" fill="#AAAAAA"/>
<defs>
<filter id="filter0_d_65_2" x="0.390686" y="0.355835" width="681.122" height="402.031" filterUnits="userSpaceOnUse" color-interpolation-filters="sRGB">
<feFlood flood-opacity="0" result="BackgroundImageFix"/>
<feColorMatrix in="SourceAlpha" type="matrix" values="0 0 0 0 0 0 0 0 0 0 0 0 0 0 0 0 0 0 127 0" result="hardAlpha"/>
<feOffset dy="5"/>
<feGaussianBlur stdDeviation="2"/>
<feComposite in2="hardAlpha" operator="out"/>
<feColorMatrix type="matrix" values="0 0 0 0 0 0 0 0 0 0 0 0 0 0 0 0 0 0 0.25 0"/>
<feBlend mode="normal" in2="BackgroundImageFix" result="effect1_dropShadow_65_2"/>
<feBlend mode="normal" in="SourceGraphic" in2="effect1_dropShadow_65_2" result="shape"/>
</filter>
<filter id="filter1_b_65_2" x="-66" y="-32" width="814" height="495" filterUnits="userSpaceOnUse" color-interpolation-filters="sRGB">
<feFlood flood-opacity="0" result="BackgroundImageFix"/>
<feGaussianBlur in="BackgroundImageFix" stdDeviation="35"/>
<feComposite in2="SourceAlpha" operator="in" result="effect1_backgroundBlur_65_2"/>
<feBlend mode="normal" in="SourceGraphic" in2="effect1_backgroundBlur_65_2" result="shape"/>
</filter>
<linearGradient id="paint0_linear_65_2" x1="291.619" y1="0.355835" x2="291.619" y2="32.7485" gradientUnits="userSpaceOnUse">
<stop stop-color="#F7F6FF"/>
<stop offset="1" stop-color="#F9F8FF" stop-opacity="0.52"/>
</linearGradient>
</defs>
</svg>
